<?xml version="1.0" encoding="UTF-8"?>
<svg version="1.1" xmlns="http://www.w3.org/2000/svg" width="512" height="512">
<path d="M0 0 C2.60846513 2.48908457 2.9840883 3.81245408 3.29296875 7.453125 C3.24076172 9.33257812 3.24076172 9.33257812 3.1875 11.25 C3.16042969 12.51328125 3.13335937 13.7765625 3.10546875 15.078125 C3.05326172 16.52445313 3.05326172 16.52445313 3 18 C3.81797058 17.99555878 4.63594116 17.99111755 5.47869873 17.98654175 C13.18870552 17.94646144 20.89866177 17.91601379 28.60874557 17.89637566 C32.57254227 17.8859401 36.53625286 17.87178508 40.5 17.84912109 C44.32550147 17.82738455 48.15092012 17.81542966 51.97647858 17.81024551 C53.43571527 17.80655121 54.89494744 17.79933717 56.35414886 17.78853989 C58.39863365 17.774014 60.44277657 17.77202249 62.48730469 17.77294922 C63.65090515 17.768508 64.81450562 17.76406677 66.0133667 17.75949097 C68.96348034 17.99705913 70.57591117 18.34442492 73 20 C75.03120707 23.04681061 75.24659875 23.60118324 75.1953125 27.01171875 C75.18886719 27.76904297 75.18242187 28.52636719 75.17578125 29.30664062 C75.15902344 30.09232422 75.14226562 30.87800781 75.125 31.6875 C75.11597656 32.48478516 75.10695313 33.28207031 75.09765625 34.10351562 C75.07411585 36.069139 75.03824547 38.03460775 75 40 C76.64983887 39.9685791 76.64983887 39.9685791 78.33300781 39.93652344 C82.41799881 39.86406365 86.50293314 39.81817885 90.58837891 39.78027344 C92.35572872 39.7601715 94.12301213 39.73288528 95.89013672 39.69824219 C98.43213285 39.64965991 100.97324896 39.62701774 103.515625 39.609375 C104.69865204 39.57840729 104.69865204 39.57840729 105.90557861 39.54681396 C109.5224573 39.54533821 111.55657251 39.65869946 114.46777344 41.89941406 C117.27497408 45.74790902 117.31365917 48.22272963 117 53 C116.17858101 55.71419419 115.06086713 58.27394654 113.9375 60.875 C109.62413329 71.73453501 111.61188192 77.75263414 115.94140625 88.5703125 C117.08550373 92.27701946 117.31522586 95.14311893 117 99 C114.86320715 102.38939556 113.8225233 103.72582557 110 105 C107.54760256 105.10596424 105.12319827 105.15722348 102.67041016 105.16113281 C101.92697861 105.16609772 101.18354706 105.17106262 100.41758728 105.17617798 C97.95806961 105.19078355 95.49861642 105.1975987 93.0390625 105.203125 C91.3289693 105.20887752 89.61887612 105.21463524 87.90878296 105.22039795 C84.32264913 105.23090319 80.73653768 105.23674906 77.15039062 105.24023438 C72.55809077 105.2457199 67.96608728 105.26975108 63.37388039 105.29820633 C59.84110655 105.3168409 56.30840401 105.32203873 52.77558517 105.32357025 C51.08272048 105.32659516 49.38985698 105.33461828 47.69704056 105.34775543 C45.32725793 105.3648343 42.95819832 105.36293153 40.58837891 105.35644531 C39.89106155 105.3656601 39.1937442 105.37487488 38.47529602 105.3843689 C34.15088615 105.34734203 31.44230311 104.6416365 28 102 C24.66783937 96.30340204 25.88129787 89.350564 26 83 C18.41 83 10.82 83 3 83 C3 94.22 3 105.44 3 117 C4.65 117.66 6.3 118.32 8 119 C9.51027812 119.76277176 11.00757839 120.55168003 12.4921875 121.36328125 C13.34981689 121.8310498 14.20744629 122.29881836 15.09106445 122.78076172 C16.00976318 123.28623535 16.92846191 123.79170898 17.875 124.3125 C19.32942505 125.10938232 19.32942505 125.10938232 20.81323242 125.92236328 C29.6114486 130.7571703 38.35085463 135.69391701 47.08203125 140.6484375 C53.20794248 144.12301762 59.35272295 147.56340068 65.5 151 C74.4913301 156.02900193 83.4734233 161.07380932 92.43481445 166.15600586 C97.41489813 168.97971114 102.40442364 171.78447316 107.41015625 174.5625 C108.46058105 175.14829834 109.51100586 175.73409668 110.59326172 176.33764648 C112.60621137 177.459746 114.62202504 178.57672824 116.64111328 179.68774414 C118.00018799 180.44752563 118.00018799 180.44752563 119.38671875 181.22265625 C120.18295654 181.66359619 120.97919434 182.10453613 121.79956055 182.55883789 C125.37801073 184.90251829 127.63538488 186.90615464 129 191 C129.08209792 192.77313851 129.10746294 194.54920775 129.09765625 196.32421875 C129.09443359 197.35224609 129.09121094 198.38027344 129.08789062 199.43945312 C129.07951172 200.51130859 129.07113281 201.58316406 129.0625 202.6875 C129.05798828 203.77095703 129.05347656 204.85441406 129.04882812 205.97070312 C129.03703743 208.64719085 129.02058063 211.32356777 129 214 C129.58899204 213.99815641 130.17798409 213.99631283 130.78482437 213.99441338 C145.1149225 213.95024869 159.44501455 213.91715041 173.77516556 213.89637566 C180.7051157 213.88606216 187.63502042 213.87200044 194.56494141 213.84912109 C201.24982072 213.82706127 207.93464305 213.81543857 214.61956024 213.81024551 C217.17289728 213.80654361 219.72623166 213.79931495 222.27954865 213.78853989 C225.84950902 213.77407061 229.41927295 213.77202017 232.98925781 213.77294922 C234.05021164 213.76575867 235.11116547 213.75856812 236.20426941 213.75115967 C237.66395897 213.75528366 237.66395897 213.75528366 239.15313721 213.75949097 C239.99749958 213.75764738 240.84186195 213.75580379 241.71181107 213.75390434 C244.27735349 214.02982948 245.83436572 214.6064554 248 216 C250.04120812 219.06181218 250.25058328 219.66210167 250.25726891 223.10613918 C250.2637178 223.94566047 250.27016669 224.78518176 250.276811 225.65014309 C250.2737138 226.57250367 250.2706166 227.49486426 250.26742554 228.44517517 C250.27195665 229.42496875 250.27648776 230.40476233 250.28115618 231.41424662 C250.29386257 234.71232827 250.2921758 238.01024612 250.29052734 241.30834961 C250.29650865 243.66680617 250.30331327 246.02526077 250.31088257 248.38371277 C250.32858908 254.80096483 250.33323987 261.2181636 250.33451414 267.63543773 C250.33550121 271.64114842 250.3400699 275.64685242 250.34550858 279.65255928 C250.36312366 292.89558588 250.37234693 306.13858004 250.37084763 319.38161843 C250.37072776 320.45281619 250.37072776 320.45281619 250.37060547 321.5456543 C250.37052371 322.2606561 250.37044195 322.97565789 250.37035771 323.71232641 C250.36954454 335.30397117 250.38868925 346.89548607 250.4168822 358.48709326 C250.44558982 370.38398739 250.4594237 382.28081813 250.45769465 394.17774779 C250.45703005 400.85913184 250.46293989 407.54039898 250.48405075 414.22175407 C250.50335574 420.5032965 250.50361066 426.78455063 250.48901749 433.06610298 C250.48691873 435.37522424 250.49169322 437.68436318 250.5037384 439.99345398 C250.51908578 443.13859311 250.50995212 446.28272505 250.49447632 449.42784119 C250.50476344 450.34797105 250.51505057 451.26810092 250.52564943 452.21611351 C250.45869013 458.34688925 250.45869013 458.34688925 248.21909523 461.53575993 C243.71202919 464.5096867 239.02566883 464.14240123 233.77555943 464.12863445 C232.51473331 464.13126401 232.51473331 464.13126401 231.22843596 464.13394669 C228.39312422 464.13862321 225.55786338 464.13613694 222.72254944 464.13371277 C220.67675927 464.13557991 218.63096946 464.13788022 216.58518022 464.14057809 C210.94868603 464.14671446 205.31220662 464.14656035 199.67570984 464.14538372 C193.60268748 464.14518017 187.52966992 464.15069398 181.45664978 464.15544128 C169.5534607 464.16375824 157.6502764 464.16650953 145.74708516 464.16705366 C136.07569215 464.16751289 126.40430074 464.16956958 116.73290825 464.17275429 C113.95082281 464.1736518 111.16873737 464.17454162 108.38665193 464.17542917 C107.69505574 464.17565021 107.00345954 464.17587126 106.29090588 464.17609901 C86.83374638 464.18225447 67.37658744 464.18619944 47.91942692 464.18575573 C47.18561839 464.18574015 46.45180985 464.18572457 45.6957647 464.18570852 C41.97635937 464.18562541 38.25695405 464.18552637 34.53754873 464.18542381 C33.798836 464.18540387 33.06012327 464.18538392 32.29902531 464.18536337 C30.80516826 464.18532294 29.3113112 464.18528114 27.81745415 464.18523798 C4.56880758 464.18462505 -18.6798244 464.19213453 -41.9284668 464.20581055 C-68.03627716 464.22116207 -94.14407794 464.22977735 -120.2518931 464.22884732 C-123.0342929 464.22877269 -125.81669269 464.22872399 -128.59909248 464.22869301 C-129.28421201 464.22868135 -129.96933153 464.2286697 -130.67521225 464.22865769 C-141.71298934 464.22862689 -152.75075379 464.23501977 -163.78852712 464.24362527 C-174.87594299 464.25209088 -185.96334403 464.25292828 -197.05076235 464.24651595 C-203.06039206 464.24323964 -209.06997587 464.24323393 -215.07960129 464.2518692 C-220.5761044 464.25968619 -226.07252484 464.25835232 -231.56902582 464.24958507 C-233.56225292 464.24803943 -235.55548605 464.24990585 -237.54870605 464.25544515 C-240.24914491 464.26245548 -242.94928975 464.25725091 -245.64971828 464.24888897 C-246.43119517 464.25385715 -247.21267205 464.25882533 -248.01783004 464.26394406 C-253.06107953 464.23072168 -256.74556272 463.72462901 -260.7887302 460.6316337 C-262.31363639 458.57751799 -262.37670923 457.43792297 -262.38031673 454.89386082 C-262.38875668 454.05433953 -262.39719662 453.21481824 -262.40589231 452.34985691 C-262.39988227 451.42749633 -262.39387222 450.50513574 -262.38768005 449.55482483 C-262.39306559 448.57503125 -262.39845113 447.59523767 -262.40399987 446.58575338 C-262.41835966 443.28759298 -262.41115591 439.9898294 -262.40405273 436.69165039 C-262.4097521 434.3331927 -262.41671467 431.97473777 -262.42485046 429.61628723 C-262.44284482 423.19900605 -262.44160169 416.78186114 -262.43590808 410.36456227 C-262.4328516 406.35885039 -262.43579885 402.35315041 -262.44038582 398.34744072 C-262.44113424 397.68291538 -262.44188266 397.01839005 -262.44265376 396.33372758 C-262.44418521 394.9838351 -262.44572356 393.63394262 -262.44726873 392.28405016 C-262.46100382 379.61857026 -262.45554908 366.95315209 -262.44408352 354.28767359 C-262.43415058 342.69602323 -262.44709099 331.10453247 -262.47101771 319.51290674 C-262.4953899 307.61600526 -262.5050212 295.71917817 -262.49836498 283.82225221 C-262.49486849 277.14087628 -262.49746607 270.45960482 -262.51461601 263.77824593 C-262.53003491 257.49669029 -262.5261857 251.21544036 -262.50731087 244.93389702 C-262.50361097 242.62478063 -262.50677391 240.31564185 -262.51719666 238.00654602 C-262.53031227 234.86139321 -262.51894245 231.71726658 -262.50120544 228.57215881 C-262.51081045 227.65202895 -262.52041546 226.73189908 -262.53031152 225.78388649 C-262.45835666 219.60969785 -262.45835666 219.60969785 -260.09367466 216.46424007 C-256.93125611 214.25255931 -255.21249316 213.87558552 -251.39364624 213.87974548 C-249.93808067 213.87768349 -249.93808067 213.87768349 -248.45310974 213.87557983 C-246.85089317 213.88097275 -246.85089317 213.88097275 -245.21630859 213.88647461 C-243.53337959 213.88625557 -243.53337959 213.88625557 -241.81645203 213.8860321 C-238.09376111 213.88673091 -234.37111972 213.89452185 -230.6484375 213.90234375 C-228.07296781 213.90420804 -225.49749776 213.90563189 -222.92202759 213.90663147 C-216.82699678 213.9100645 -210.73198653 213.91795261 -204.63696349 213.92798096 C-197.69872028 213.93914944 -190.76047624 213.9446544 -183.82222629 213.94967639 C-169.54814124 213.96013542 -155.27407126 213.97773029 -141 214 C-141.01047363 213.3294458 -141.02094727 212.6588916 -141.03173828 211.96801758 C-141.07343171 208.91621684 -141.09936853 205.86447616 -141.125 202.8125 C-141.14175781 201.75740234 -141.15851563 200.70230469 -141.17578125 199.61523438 C-141.18222656 198.59365234 -141.18867188 197.57207031 -141.1953125 196.51953125 C-141.20578613 195.58214111 -141.21625977 194.64475098 -141.22705078 193.67895508 C-140.97646133 190.72226897 -140.3485323 188.63903292 -139 186 C-136.73783373 184.34840493 -134.62738477 183.02266717 -132.1875 181.6875 C-131.45611816 181.27218018 -130.72473633 180.85686035 -129.97119141 180.42895508 C-127.32392073 178.93442472 -124.66301501 177.46628995 -122 176 C-119.74348431 174.75000952 -117.48697424 173.5000089 -115.23046875 172.25 C-111.51573376 170.19517899 -107.79876534 168.14449611 -104.07788086 166.10083008 C-96.44120481 161.90638897 -88.82886508 157.67340144 -81.25 153.375 C-72.35558486 148.33047599 -63.44516946 143.3157551 -54.51953125 138.32666016 C-49.60550019 135.5798152 -44.69340975 132.82981942 -39.79074097 130.06272888 C-38.05943235 129.0857139 -36.32732813 128.11010918 -34.59521484 127.13452148 C-32.41447584 125.90600562 -30.2350471 124.6751601 -28.05712891 123.44165039 C-27.07405762 122.88856201 -26.09098633 122.33547363 -25.078125 121.765625 C-24.21606445 121.27868164 -23.35400391 120.79173828 -22.46582031 120.29003906 C-20.02487586 119.01301426 -17.5627413 118.00435989 -15 117 C-15.00691345 116.13335582 -15.00691345 116.13335582 -15.01396656 115.24920368 C-15.12442592 101.18587784 -15.20714668 87.1226171 -15.25906086 73.05894947 C-15.28483409 66.25780971 -15.31996701 59.45695966 -15.37719727 52.65600586 C-15.43238765 46.09432815 -15.4614114 39.53287258 -15.47438622 32.97095299 C-15.48363415 30.46585028 -15.50169297 27.9607643 -15.52865028 25.45578957 C-15.56487789 21.95038699 -15.56994771 18.44623309 -15.56762695 14.94067383 C-15.59459152 13.38268822 -15.59459152 13.38268822 -15.62210083 11.79322815 C-15.57162178 4.75988768 -15.57162178 4.75988768 -12.65202332 0.87870789 C-7.86788072 -2.51040501 -5.37348912 -2.01505842 0 0 Z " fill="#43372D" transform="translate(262,25)"/>
<path d="M0 0 C3.52873455 1.74742654 6.91720693 3.69506119 10.3125 5.6875 C12.38372608 6.88088286 14.45535453 8.07356761 16.52734375 9.265625 C17.59581543 9.88373047 18.66428711 10.50183594 19.76513672 11.13867188 C24.94263708 14.11778604 30.15887089 17.02672651 35.375 19.9375 C37.47404851 21.11181799 39.57300634 22.2862981 41.671875 23.4609375 C43.78121711 24.64068381 45.89059215 25.82037124 48 27 C60.34169919 33.90175837 72.68146418 40.80695722 85 47.75 C85.85803223 48.23218994 86.71606445 48.71437988 87.60009766 49.21118164 C89.3174407 50.1806913 91.02091688 51.17520775 92.70904636 52.19473457 C95.23883575 53.58246039 97.55334995 54.63603596 100.21852779 55.67547417 C105.69988408 58.01690853 111.52403736 60.52306639 113.97339177 66.29302454 C115.55217321 73.36559407 115.12816978 80.61279015 114.92993164 87.80908203 C114.92513289 90.2440202 114.92783494 92.67898296 114.93745422 95.11390686 C114.94131693 100.34424827 114.89334372 105.57134196 114.79741096 110.80069351 C114.65880936 118.36090098 114.61493524 125.91936907 114.59361511 133.48070918 C114.55647408 145.74952472 114.44352868 158.01641089 114.2824707 170.28417969 C114.12625091 182.19586581 114.00600762 194.10702656 113.93383789 206.01953125 C113.92937159 206.75469192 113.92490529 207.4898526 113.92030365 208.24729086 C113.89811683 211.93564683 113.87663408 215.62400649 113.85550129 219.31236863 C113.67947264 249.87633542 113.37553694 280.43779494 113 311 C98.48 311 83.96 311 69 311 C68.99589111 307.63337158 68.99178223 304.26674316 68.98754883 300.7980957 C68.97036111 289.68197344 68.92587568 278.56608162 68.86790943 267.4501009 C68.83326874 260.70961711 68.80790516 253.96933763 68.80444336 247.22875977 C68.80107718 240.72523939 68.77177575 234.22213699 68.72656822 227.71877098 C68.71356608 225.23607563 68.70929508 222.75331887 68.71384621 220.27059364 C68.71873254 216.79612183 68.6927441 213.32316297 68.65942383 209.84887695 C68.66804947 208.81957062 68.67667511 207.79026428 68.68556213 206.72976685 C68.61609751 202.41643908 68.37416281 199.67396635 66.25810242 195.86238098 C61.08560981 192.9057054 56.06853971 193.30471633 50.2109375 193.35302734 C48.91126038 193.34426575 47.61158325 193.33550415 46.27252197 193.32647705 C42.71450664 193.30371444 39.15721752 193.3125067 35.59918976 193.32837248 C31.87258473 193.34104759 28.14604111 193.32928691 24.41943359 193.32144165 C18.1616705 193.31234971 11.90420263 193.32432077 5.64648438 193.34814453 C-1.58430706 193.3753553 -8.81439357 193.36654078 -16.04516792 193.3390125 C-22.25767099 193.31630919 -28.46996206 193.31312721 -34.68249321 193.32620585 C-38.39108711 193.33399379 -42.09934985 193.33506049 -45.80792236 193.31852341 C-49.94268415 193.30137316 -54.07623425 193.3251538 -58.2109375 193.35302734 C-60.05168854 193.33784561 -60.05168854 193.33784561 -61.92962646 193.32235718 C-66.75300109 193.38269138 -70.02735692 193.4440224 -74.25810242 195.86238098 C-76.83760258 200.50874415 -76.70331568 204.61121797 -76.65942383 209.84887695 C-76.67514938 211.48857201 -76.67514938 211.48857201 -76.69119263 213.16139221 C-76.7199688 216.77064304 -76.7136476 220.37893613 -76.70703125 223.98828125 C-76.72014462 226.49221501 -76.73544772 228.99613818 -76.75285339 231.50004578 C-76.7886803 237.41438792 -76.80244029 243.32852 -76.8054778 249.24294585 C-76.81063122 256.63929795 -76.85010287 264.03540034 -76.88867188 271.43164062 C-76.95330361 284.62112443 -76.98390238 297.81036756 -77 311 C-91.52 311 -106.04 311 -121 311 C-121 229.49 -121 147.98 -121 64 C-97.12544014 50.35739437 -97.12544014 50.35739437 -87.625 45.0625 C-79.57107696 40.56310165 -71.52791413 36.04564369 -63.5 31.5 C-57.5879241 28.15240683 -51.67186643 24.81243008 -45.7421875 21.49609375 C-44.69135986 20.90836182 -43.64053223 20.32062988 -42.55786133 19.71508789 C-40.45207824 18.5390346 -38.34516033 17.36501074 -36.23706055 16.19311523 C-31.10448202 13.3327237 -26.00835429 10.42912404 -20.96484375 7.4140625 C-20.01109863 6.84953369 -19.05735352 6.28500488 -18.07470703 5.70336914 C-16.28210299 4.63848565 -14.49733209 3.5602613 -12.72216797 2.46655273 C-5.19010213 -1.98600847 -5.19010213 -1.98600847 0 0 Z " fill="#FDEAC6" transform="translate(260,159)"/>
<path d="M0 0 C34.65 0 69.3 0 105 0 C105.04030303 53.37465165 105.04030303 53.37465165 105.04882812 75.66601562 C105.0547719 91.08439464 105.06177574 106.50276821 105.07543945 121.92114258 C105.08538399 133.14805911 105.09185288 144.37497124 105.09408849 155.60189205 C105.09539599 161.55044637 105.09848431 167.49898809 105.10573006 173.44753838 C105.11248665 179.03949192 105.1146177 184.63142762 105.11310768 190.22338486 C105.11338417 192.28220148 105.11539142 194.34101866 105.11920547 196.39983177 C105.12413709 199.19772416 105.12300027 201.995548 105.12025452 204.79344177 C105.12316736 205.61930092 105.1260802 206.44516006 105.12908131 207.29604524 C105.11412121 212.88587879 105.11412121 212.88587879 104 214 C69.68 214 35.36 214 0 214 C0 143.38 0 72.76 0 0 Z " fill="#FBE8C3" transform="translate(390,257)"/>
<path d="M0 0 C34.65 0 69.3 0 105 0 C105 70.62 105 141.24 105 214 C70.68 214 36.36 214 1 214 C-0.80945731 212.19054269 -0.122635 209.70470409 -0.12908131 207.29604524 C-0.12616847 206.4701861 -0.12325563 205.64432695 -0.12025452 204.79344177 C-0.12110894 203.92279069 -0.12196337 203.05213962 -0.12284368 202.15510517 C-0.12450116 199.21462978 -0.11897276 196.27421044 -0.11352539 193.33374023 C-0.11324355 191.23509726 -0.11340119 189.13645419 -0.1139679 187.03781128 C-0.114256 181.3211021 -0.10835728 175.60441371 -0.10139394 169.88770938 C-0.09516244 163.92058844 -0.09455676 157.95346708 -0.09336853 151.98634338 C-0.09025461 140.67805371 -0.0820404 129.36977364 -0.07201904 118.06148821 C-0.05877509 102.78673756 -0.05335849 87.51198429 -0.04751682 72.23722935 C-0.03810055 48.15814569 -0.01818204 24.07908233 0 0 Z " fill="#FBE8C3" transform="translate(17,257)"/>
<path d="M0 0 C15.18 0 30.36 0 46 0 C46 33 46 66 46 100 C30.82 100 15.64 100 0 100 C0 67 0 34 0 0 Z " fill="#FFFFFF" transform="translate(265,370)"/>
<path d="M0 0 C15.18 0 30.36 0 46 0 C46 33 46 66 46 100 C30.82 100 15.64 100 0 100 C0 67 0 34 0 0 Z " fill="#FFFFFF" transform="translate(201,370)"/>
<path d="M0 0 C8.80860873 4.77358142 16.42940158 12.08326958 20.19140625 21.48828125 C23.16023535 32.00826264 22.55030522 43.39236888 17.21484375 53.03125 C11.0805886 62.45302513 3.54181352 67.49127049 -7.08984375 71.03515625 C-25.2532237 72.20636785 -25.2532237 72.20636785 -33.08984375 67.03515625 C-33.79496094 66.57625 -34.50007813 66.11734375 -35.2265625 65.64453125 C-44.23762787 59.31513228 -49.82346564 50.80045226 -52.08984375 40.03515625 C-53.16653764 28.05693677 -49.94405471 18.392282 -42.4921875 9.02734375 C-32.27393166 -2.13302078 -14.04722938 -5.8191798 0 0 Z " fill="#44382E" transform="translate(271.08984375,186.96484375)"/>
<path d="M0 0 C17.82 0 35.64 0 54 0 C54 9.57 54 19.14 54 29 C36.18 29 18.36 29 0 29 C0 19.43 0 9.86 0 0 Z " fill="#F07567" transform="translate(265,61)"/>
<path d="M0 0 C5.30617762 3.14739053 9.75146083 7.12156998 11.7421875 13.09375 C12.31279199 19.37039941 12.03829625 24.56479339 8.7421875 30.09375 C4.07761102 35.08081571 -0.20751898 37.79372113 -7.0703125 38.46875 C-12.42442338 38.30711646 -16.87342423 36.29704549 -20.80078125 32.66796875 C-25.53537138 27.29469491 -26.74300486 22.58755284 -26.56640625 15.5859375 C-25.76241123 9.09291441 -21.78957554 5.29615396 -16.94140625 1.2578125 C-12.19416677 -2.02450157 -5.248675 -2.1067346 0 0 Z " fill="#FCFBFB" transform="translate(263.2578125,202.90625)"/>
<path d="M0 0 C6.27 0 12.54 0 19 0 C18.67 1.485 18.34 2.97 18 4.5 C16.40364812 12.6540276 16.86154533 18.28463226 20 26 C20 26.99 20 27.98 20 29 C3.17 29 -13.66 29 -31 29 C-31 27.35 -31 25.7 -31 24 C-30.22809326 23.98541748 -29.45618652 23.97083496 -28.66088867 23.95581055 C-25.16924907 23.88141967 -21.6785751 23.7847291 -18.1875 23.6875 C-16.97255859 23.66494141 -15.75761719 23.64238281 -14.50585938 23.61914062 C-13.34248047 23.58369141 -12.17910156 23.54824219 -10.98046875 23.51171875 C-9.37014771 23.47244263 -9.37014771 23.47244263 -7.72729492 23.43237305 C-4.69393787 22.95147829 -3.80696997 22.42154017 -2 20 C-0.88176185 17.76352369 -0.80603939 16.35108471 -0.68359375 13.8671875 C-0.64548584 13.14128418 -0.60737793 12.41538086 -0.56811523 11.66748047 C-0.50346069 10.28520264 -0.50346069 10.28520264 -0.4375 8.875 C-0.293125 5.94625 -0.14875 3.0175 0 0 Z " fill="#EA7365" transform="translate(337,83)"/>
<path d="M0 0 C5.94 0 11.88 0 18 0 C18 11.88 18 23.76 18 36 C12.06 36 6.12 36 0 36 C0 24.12 0 12.24 0 0 Z " fill="#493D32" transform="translate(455,346)"/>
<path d="M0 0 C5.94 0 11.88 0 18 0 C18 11.88 18 23.76 18 36 C12.06 36 6.12 36 0 36 C0 24.12 0 12.24 0 0 Z " fill="#4A3D32" transform="translate(412,346)"/>
<path d="M0 0 C5.94 0 11.88 0 18 0 C18 11.88 18 23.76 18 36 C12.06 36 6.12 36 0 36 C0 24.12 0 12.24 0 0 Z " fill="#4A3D32" transform="translate(82,346)"/>
<path d="M0 0 C5.94 0 11.88 0 18 0 C18 11.88 18 23.76 18 36 C12.06 36 6.12 36 0 36 C0 24.12 0 12.24 0 0 Z " fill="#493D32" transform="translate(39,346)"/>
<path d="M0 0 C11.88 0 23.76 0 36 0 C36 5.94 36 11.88 36 18 C24.12 18 12.24 18 0 18 C0 12.06 0 6.12 0 0 Z " fill="#4B3F33" transform="translate(238,318)"/>
<path d="M0 0 C5.94 0 11.88 0 18 0 C18 11.88 18 23.76 18 36 C12.06 36 6.12 36 0 36 C0 24.12 0 12.24 0 0 Z " fill="#493D32" transform="translate(455,276)"/>
<path d="M0 0 C5.94 0 11.88 0 18 0 C18 11.88 18 23.76 18 36 C12.06 36 6.12 36 0 36 C0 24.12 0 12.24 0 0 Z " fill="#493D32" transform="translate(39,276)"/>
<path d="M0 0 C5.61 0 11.22 0 17 0 C17 11.55 17 23.1 17 35 C11.39 35 5.78 35 0 35 C0 23.45 0 11.9 0 0 Z " fill="#42362C" transform="translate(456,416)"/>
<path d="M0 0 C5.61 0 11.22 0 17 0 C17 11.55 17 23.1 17 35 C11.39 35 5.78 35 0 35 C0 23.45 0 11.9 0 0 Z " fill="#42362C" transform="translate(412,416)"/>
<path d="M0 0 C5.61 0 11.22 0 17 0 C17 11.55 17 23.1 17 35 C11.39 35 5.78 35 0 35 C0 23.45 0 11.9 0 0 Z " fill="#42362C" transform="translate(83,416)"/>
<path d="M0 0 C5.61 0 11.22 0 17 0 C17 11.55 17 23.1 17 35 C11.39 35 5.78 35 0 35 C0 23.45 0 11.9 0 0 Z " fill="#42362C" transform="translate(39,416)"/>
<path d="M0 0 C11.55 0 23.1 0 35 0 C35 5.61 35 11.22 35 17 C23.45 17 11.9 17 0 17 C0 11.39 0 5.78 0 0 Z " fill="#42362C" transform="translate(311,318)"/>
<path d="M0 0 C11.55 0 23.1 0 35 0 C35 5.61 35 11.22 35 17 C23.45 17 11.9 17 0 17 C0 11.39 0 5.78 0 0 Z " fill="#42362C" transform="translate(166,318)"/>
<path d="M0 0 C5.61 0 11.22 0 17 0 C17 11.55 17 23.1 17 35 C11.39 35 5.78 35 0 35 C0 23.45 0 11.9 0 0 Z " fill="#42362C" transform="translate(412,277)"/>
<path d="M0 0 C11.55 0 23.1 0 35 0 C35 5.61 35 11.22 35 17 C23.45 17 11.9 17 0 17 C0 11.39 0 5.78 0 0 Z " fill="#42362C" transform="translate(311,277)"/>
<path d="M0 0 C11.55 0 23.1 0 35 0 C35 5.61 35 11.22 35 17 C23.45 17 11.9 17 0 17 C0 11.39 0 5.78 0 0 Z " fill="#42362C" transform="translate(166,277)"/>
<path d="M0 0 C5.61 0 11.22 0 17 0 C17 11.55 17 23.1 17 35 C11.39 35 5.78 35 0 35 C0 23.45 0 11.9 0 0 Z " fill="#42362C" transform="translate(83,277)"/>
<path d="M0 0 C11.22 0 22.44 0 34 0 C34 5.61 34 11.22 34 17 C22.78 17 11.56 17 0 17 C0 11.39 0 5.78 0 0 Z " fill="#42362C" transform="translate(239,277)"/>
</svg>
