<?xml version="1.0" encoding="UTF-8"?>
<svg version="1.1" xmlns="http://www.w3.org/2000/svg" width="512" height="512">
<path d="M0 0 C1.94284423 0.5225526 3.88602792 1.04384455 5.82952881 1.56394958 C10.93338365 2.93374958 16.03208947 4.32184653 21.13000488 5.71356201 C26.23963921 7.104441 31.35451691 8.47575791 36.46875 9.84960938 C46.01882257 12.41872667 55.55835537 15.02470907 65.0925293 17.65216064 C68.13662029 18.49047715 71.18243038 19.32149213 74.23168945 20.14080811 C77.66921361 21.06591597 81.10090409 22.00963277 84.53125 22.9609375 C85.92250092 23.32730064 85.92250092 23.32730064 87.34185791 23.70106506 C93.62363795 25.48300343 96.87883693 28.11192125 100.76953125 33.44140625 C103.19511785 38.54215749 103.05318539 44.95731912 101.1875 50.26171875 C99.49637352 53.35778108 97.93101407 55.0316677 94.984375 56.99609375 C94.25095499 61.51700151 94.42874533 66.11024462 94.421875 70.68359375 C94.38513672 71.95138672 94.34839844 73.21917969 94.31054688 74.52539062 C94.1441918 82.47611426 94.1441918 82.47611426 97.953125 89.1328125 C98.49259766 89.60549561 99.03207031 90.07817871 99.58789062 90.56518555 C101.34731764 92.36798305 101.65439411 93.65192389 102.046875 96.12109375 C101.98111928 100.19794843 101.53623485 101.87715394 98.984375 104.99609375 C95.66992119 106.65332066 92.53955463 106.73337178 88.984375 105.99609375 C82.32379661 102.20750788 78.41798375 96.13729046 75.984375 88.99609375 C75.42469063 84.4272277 75.50543396 79.96486655 75.671875 75.37109375 C75.69443359 74.17613281 75.71699219 72.98117188 75.74023438 71.75 C75.79860477 68.8314803 75.88826341 65.91361443 75.984375 62.99609375 C70.704375 64.31609375 65.424375 65.63609375 59.984375 66.99609375 C59.984375 85.80609375 59.984375 104.61609375 59.984375 123.99609375 C61.964375 124.65609375 63.944375 125.31609375 65.984375 125.99609375 C67.94801331 127.35749817 67.94801331 127.35749817 69.69750977 128.97192383 C70.37782257 129.59700836 71.05813538 130.2220929 71.75906372 130.86611938 C76.07367925 134.99588791 80.34269398 139.1680263 84.57421875 143.3828125 C85.06209932 143.8678657 85.5499799 144.35291889 86.05264473 144.85267067 C88.62411318 147.40928332 91.19280042 149.96864992 93.7590332 152.53051758 C96.40415569 155.17011062 99.05846731 157.8002627 101.71492672 160.42843914 C103.76596672 162.4608781 105.81028987 164.49997213 107.85281563 166.54096413 C108.82914801 167.51427426 109.80797582 168.485088 110.78935051 169.45331383 C112.15559349 170.80251754 113.51151961 172.16214437 114.86694336 173.5222168 C116.02654823 174.67635323 116.02654823 174.67635323 117.20957947 175.85380554 C120.10032831 179.34311857 120.11174686 182.3348072 120.046875 186.74609375 C120.03785156 187.5453125 120.02882813 188.34453125 120.01953125 189.16796875 C120.00212891 190.07289063 120.00212891 190.07289063 119.984375 190.99609375 C120.75365829 190.9872113 121.52294159 190.97832886 122.3155365 190.96917725 C129.59718893 190.88872998 136.87862315 190.8279775 144.16060543 190.78884506 C147.9035699 190.76804962 151.64616441 190.73988167 155.38891602 190.69433594 C159.00698499 190.65058751 162.62470014 190.62689629 166.24301338 190.61658478 C167.61721929 190.60924494 168.9914078 190.59491291 170.36546135 190.57317352 C179.18652176 190.43927677 186.7167706 190.57254524 193.71018785 196.44537055 C198.24029778 200.87693404 201.51313301 205.5228572 204.62025452 211.03079224 C205.11579657 211.90838786 205.61133862 212.78598348 206.1218971 213.69017291 C221.03085805 240.69045144 225.27419581 262.90474903 224.31643558 293.44989157 C224.16886132 298.98758893 224.15885845 304.52585579 224.1318512 310.06521606 C224.06143245 320.47167196 223.87424643 330.87231541 223.64081293 341.27625382 C223.38028784 353.15534296 223.2564308 365.03476738 223.14181793 376.9160192 C222.90385044 401.27921997 222.50150843 425.63732618 221.984375 449.99609375 C222.5987442 450.27049286 223.2131134 450.54489197 223.84609985 450.8276062 C227.06477944 452.58649445 228.256334 454.80197918 229.984375 457.99609375 C230.69390925 462.2690667 230.64383284 466.49873244 230.61572266 470.82666016 C230.60940761 472.86058963 230.65633636 474.88866538 230.70703125 476.921875 C230.71393836 483.89115184 230.47802489 488.99232657 225.95849609 494.48486328 C219.53564162 499.40169103 213.35552494 499.41328436 205.56054688 499.33325195 C203.86412804 499.33408279 203.86412804 499.33408279 202.13343811 499.33493042 C199.68571597 499.33467113 197.23798751 499.32781757 194.79029846 499.31508827 C190.91467525 499.2966925 187.03959178 499.29938474 183.16394043 499.30815125 C172.14778093 499.32995255 161.13183411 499.3191029 150.11572266 499.28100586 C143.37069634 499.25793429 136.62628378 499.26642914 129.88124084 499.29146385 C127.31363523 499.29505803 124.74598805 499.28739146 122.17845154 499.26821327 C118.58777045 499.24190788 114.99889363 499.25230282 111.40820312 499.27075195 C110.35033096 499.2538179 109.2924588 499.23688385 108.20252991 499.21943665 C103.0750706 499.28367125 99.8649032 499.56407594 95.89538574 502.97892761 C94.92155846 503.98127036 93.95055125 504.98637398 92.984375 505.99609375 C89.56941411 507.70357419 85.65853987 507.14403407 81.9006958 507.14326477 C80.94766909 507.14694146 79.99464239 507.15061815 79.01273608 507.15440625 C75.79917547 507.16547471 72.58564716 507.16929227 69.37207031 507.1730957 C67.07611996 507.17935795 64.78017062 507.18600453 62.48422241 507.19300842 C56.23207479 507.21043996 49.97993482 507.22097596 43.7277689 507.22921395 C39.82439858 507.23435932 35.92103067 507.24043524 32.01766205 507.24672508 C21.21229441 507.26359768 10.40692973 507.27823273 -0.39844894 507.28547382 C-3.20313264 507.28738375 -6.00781633 507.28930408 -8.8125 507.29125977 C-9.50959899 507.29174351 -10.20669798 507.29222725 -10.92492118 507.29272565 C-22.21781309 507.30102618 -33.51059907 507.32636292 -44.80344471 507.35884044 C-56.39520826 507.39190606 -67.98691251 507.40958932 -79.57872319 507.41311806 C-86.08806252 507.41547236 -92.59723449 507.42448219 -99.10652924 507.44957924 C-105.229644 507.47280537 -111.35248056 507.47711506 -117.4756279 507.46681786 C-119.72424874 507.46632106 -121.97288303 507.47268348 -124.22146225 507.4863739 C-127.28931445 507.50400872 -130.35615915 507.49702765 -133.42401123 507.48384094 C-134.76147215 507.50029481 -134.76147215 507.50029481 -136.12595248 507.51708108 C-141.59321826 507.46027258 -144.67115652 506.61703647 -149.015625 502.99609375 C-149.536433 502.42626235 -150.057241 501.85643095 -150.59383106 501.26933193 C-152.62614027 499.449368 -154.06781529 499.62242206 -156.764328 499.62428284 C-157.74134674 499.61752533 -158.71836548 499.61076782 -159.72499084 499.60380554 C-160.79567307 499.61152481 -161.86635529 499.61924408 -162.96948242 499.62719727 C-164.09823792 499.62343079 -165.22699341 499.61966431 -166.38995361 499.61578369 C-168.84536597 499.60933948 -171.30080326 499.6096922 -173.75621605 499.6159687 C-177.64439487 499.62505445 -181.53208888 499.61488212 -185.42024231 499.59934998 C-195.08162616 499.56425444 -204.74297583 499.5569198 -214.40441895 499.55944824 C-222.55913491 499.56131158 -230.71348694 499.54739461 -238.86812782 499.51096916 C-242.69482343 499.50014502 -246.52102234 499.51227682 -250.34770203 499.52479553 C-252.70340463 499.51588885 -255.0591032 499.50581368 -257.41479492 499.49438477 C-259.00563652 499.50900002 -259.00563652 499.50900002 -260.62861633 499.52391052 C-266.92493915 499.46306814 -271.78293563 498.66423914 -277.015625 494.99609375 C-282.88224007 488.82862662 -282.26242642 482.82559716 -282.31079102 474.70922852 C-282.32797518 472.70110183 -282.37187924 470.69326201 -282.41601562 468.68554688 C-282.42439453 467.41001953 -282.43277344 466.13449219 -282.44140625 464.8203125 C-282.45598877 463.65588623 -282.47057129 462.49145996 -282.4855957 461.29174805 C-281.90850767 457.24493694 -280.60115446 455.13410376 -278.015625 451.99609375 C-275.87666321 450.82743835 -275.87666321 450.82743835 -274.015625 449.99609375 C-274.03682624 448.9974423 -274.05802748 447.99879086 -274.07987118 446.96987724 C-274.59518488 422.43673637 -274.97060369 397.90431256 -275.20730495 373.36686516 C-275.32487948 361.49926914 -275.48451099 349.63528946 -275.75073242 337.77001953 C-275.9832242 327.40292467 -276.12910306 317.0384514 -276.17966038 306.66882145 C-276.20912622 301.19898531 -276.27598349 295.73663357 -276.44741631 290.26925278 C-277.42438565 257.84770377 -271.28064453 223.9806043 -248.32793331 199.08035088 C-241.97732019 193.35606637 -237.27941077 190.73399019 -228.55126953 190.76904297 C-227.29041534 190.76919403 -226.02956116 190.76934509 -224.73049927 190.76950073 C-223.36981037 190.77971158 -222.00912312 190.79014353 -220.6484375 190.80078125 C-219.24453941 190.80451551 -217.8406387 190.80736053 -216.43673706 190.80935669 C-212.75749403 190.81696071 -209.07841111 190.83658105 -205.39923096 190.85876465 C-201.63857183 190.87929304 -197.87788661 190.88837331 -194.1171875 190.8984375 C-186.74992733 190.91983032 -179.38279868 190.95392677 -172.015625 190.99609375 C-172.02931122 190.38325027 -172.04299744 189.7704068 -172.05709839 189.13899231 C-172.06774323 188.33233627 -172.07838806 187.52568024 -172.08935547 186.69458008 C-172.10304169 185.8961116 -172.11672791 185.09764313 -172.13082886 184.27497864 C-171.82924614 178.30927303 -167.66055947 174.08571774 -163.890625 169.80859375 C-162.89765525 168.65952968 -161.90547871 167.50977973 -160.9140625 166.359375 C-160.42260742 165.7917041 -159.93115234 165.2240332 -159.42480469 164.63916016 C-157.41226239 162.29258884 -155.46297311 159.89688573 -153.515625 157.49609375 C-149.75137001 152.86989844 -145.91482833 148.31103066 -142.0378418 143.77929688 C-139.18507647 140.43076896 -136.48589892 137.00331306 -133.828125 133.49609375 C-129.73583225 128.31757514 -125.27074895 125.08113507 -119.015625 122.99609375 C-116.705625 122.99609375 -114.395625 122.99609375 -112.015625 122.99609375 C-112.015625 104.51609375 -112.015625 86.03609375 -112.015625 66.99609375 C-115.315625 66.33609375 -118.615625 65.67609375 -122.015625 64.99609375 C-125.62536519 64.1272142 -129.19255775 63.12941229 -132.765625 62.12109375 C-133.67183594 61.87746094 -134.57804688 61.63382812 -135.51171875 61.3828125 C-142.86770067 59.31025117 -148.81477818 56.74745471 -153.015625 49.99609375 C-155.2832047 44.2657076 -155.34322195 39.73044157 -153.05859375 34.00390625 C-149.82010978 27.76952137 -144.45196057 25.40659868 -138.06956291 23.37735558 C-135.94471448 22.77046804 -133.81333194 22.19897036 -131.67553711 21.6394043 C-130.8710463 21.42427185 -130.06655548 21.2091394 -129.23768616 20.98748779 C-126.5907431 20.28095656 -123.9418906 19.58188465 -121.29296875 18.8828125 C-119.42740813 18.38628855 -117.56197761 17.88927554 -115.69667053 17.39179993 C-110.78266292 16.08254487 -105.86702836 14.77950679 -100.95098877 13.47790527 C-95.05955199 11.91691502 -89.16990381 10.34919194 -83.28025246 8.78148079 C-78.56250519 7.52592162 -73.8441385 6.27282573 -69.12411499 5.02584839 C-61.660366 3.05158061 -54.20176339 1.07547137 -46.78564453 -1.07177734 C-45.7792543 -1.36054245 -44.77286407 -1.64930756 -43.73597717 -1.94682312 C-42.03801326 -2.43909674 -40.34346226 -2.9434904 -38.65452576 -3.46589661 C-25.2053279 -7.35778151 -13.04179231 -3.58483117 0 0 Z " fill="#020200" transform="translate(282.015625,5.00390625)"/>
<path d="M0 0 C62.04 0 124.08 0 188 0 C188 61.71 188 123.42 188 187 C171.17 187 154.34 187 137 187 C136.96132813 175.70007813 136.96132813 175.70007813 136.921875 164.171875 C136.8967143 159.40491364 136.87038735 154.63801622 136.83984375 149.87109375 C136.79145447 142.30159239 136.74743043 134.73223897 136.72900391 127.16259766 C136.71388145 121.06108561 136.6795141 114.95996002 136.63169098 108.85861969 C136.61683165 106.5286113 136.60895639 104.19854775 136.60811615 101.86849213 C136.60575849 98.60949802 136.57877461 95.35158239 136.54589844 92.09277344 C136.5509288 91.125327 136.55595917 90.15788055 136.56114197 89.16111755 C136.53874847 83.92418893 136.53874847 83.92418893 134.09088135 79.43170166 C130.26682918 76.8132356 127.79933376 76.85392857 123.15112305 76.80712891 C122.44685181 76.79895142 121.74258057 76.79077393 121.01696777 76.78234863 C118.68189343 76.75749813 116.34687987 76.74097946 114.01171875 76.7265625 C112.81576552 76.71857698 112.81576552 76.71857698 111.59565163 76.71043015 C107.37538235 76.6836998 103.15514263 76.66432474 98.93481445 76.64990234 C94.57655777 76.63325615 90.21905755 76.58847921 85.86108685 76.5375309 C82.50931433 76.50386784 79.15772157 76.49232603 75.80579567 76.48667526 C74.19941236 76.4799599 72.59304099 76.46473022 70.98682213 76.44078445 C68.73627546 76.40914788 66.48777137 76.40909248 64.23706055 76.41650391 C62.31750801 76.40437363 62.31750801 76.40437363 60.35917664 76.39199829 C56.90657532 76.79235879 56.90657532 76.79235879 54.08889771 78.89857483 C51.10403899 83.33024993 51.29371779 86.97022309 51.34057617 92.20629883 C51.32485062 93.74358139 51.32485062 93.74358139 51.30880737 95.31192017 C51.28004348 98.69393132 51.28635083 102.07491962 51.29296875 105.45703125 C51.27985461 107.80402409 51.26455127 110.15100564 51.24714661 112.49797058 C51.20725105 118.67115212 51.19710315 124.84403872 51.19311523 131.01733398 C51.18215301 138.4263702 51.13430538 145.83524863 51.09262848 153.24416351 C51.03346859 164.49624165 51.02121294 175.74749804 51 187 C34.17 187 17.34 187 0 187 C0 125.29 0 63.58 0 0 Z " fill="#FDE400" transform="translate(162,265)"/>
<path d="M0 0 C39.27 0 78.54 0 119 0 C119 61.71 119 123.42 119 187 C79.73 187 40.46 187 0 187 C0 125.29 0 63.58 0 0 Z " fill="#FBD700" transform="translate(367,265)"/>
<path d="M0 0 C39.27 0 78.54 0 119 0 C119 61.71 119 123.42 119 187 C79.73 187 40.46 187 0 187 C0 125.29 0 63.58 0 0 Z " fill="#FCD800" transform="translate(26,265)"/>
<path d="M0 0 C1.03540234 -0.00869008 1.03540234 -0.00869008 2.09172189 -0.01755571 C4.41615208 -0.0356642 6.74055789 -0.04650123 9.06503296 -0.05725098 C10.72720564 -0.06842324 12.38937606 -0.07993647 14.05154419 -0.09176636 C19.52134046 -0.12836595 24.99115999 -0.15355109 30.46102905 -0.1763916 C31.39145759 -0.18033747 32.32188613 -0.18428333 33.28050947 -0.18834877 C42.0553117 -0.22477329 50.83012193 -0.25621961 59.60497475 -0.27745819 C70.82971885 -0.30502701 82.05383061 -0.35577461 93.27831137 -0.43793249 C101.16970025 -0.49373722 109.06091765 -0.52269628 116.95249689 -0.5319314 C121.66580002 -0.53818759 126.37836218 -0.55629668 131.09144974 -0.60331726 C135.52893728 -0.64703849 139.96528011 -0.65745573 144.40294647 -0.64268875 C146.02831965 -0.64301698 147.65374256 -0.65526117 149.27891922 -0.68053818 C163.07421435 -0.88370951 163.07421435 -0.88370951 168.18365479 3.52017212 C169.27333943 4.70812248 170.33461254 5.92304616 171.35946655 7.1673584 C172.44715039 8.23348162 173.54397041 9.29046228 174.65438843 10.33288574 C175.71497169 11.38703911 176.77287046 12.44389947 177.82821655 13.5032959 C178.39399414 14.06811676 178.95977173 14.63293762 179.54269409 15.21487427 C180.72014979 16.39165702 181.89637422 17.569673 183.07138062 18.74890137 C184.87980164 20.56275457 186.6936002 22.37111019 188.50790405 24.17907715 C189.65666295 25.32849561 190.80511228 26.47822356 191.95321655 27.6282959 C192.49683838 28.16989349 193.04046021 28.71149109 193.60055542 29.26950073 C197.35946655 33.05236226 197.35946655 33.05236226 197.35946655 34.1673584 C120.46946655 34.1673584 43.57946655 34.1673584 -35.64053345 34.1673584 C-31.80744284 29.05657092 -28.01217206 24.14672963 -23.82803345 19.3548584 C-19.22923281 14.0500447 -14.75922751 8.6697493 -10.38272095 3.17907715 C-7.24300397 -0.4463808 -4.64002003 0.03053693 0 0 Z " fill="#F75500" transform="translate(173.64053344726563,144.8326416015625)"/>
<path d="M0 0 C0.67047363 0.14775879 1.34094727 0.29551758 2.03173828 0.44775391 C4.3427319 0.9744599 6.63966056 1.54362449 8.9375 2.125 C9.80375 2.34236816 10.67 2.55973633 11.5625 2.78369141 C19.27183669 4.75077856 26.88729275 7.00109757 34.51147461 9.27197266 C43.45608649 11.90611658 52.47786893 14.15084081 61.53442383 16.36352539 C70.46548252 18.56544092 79.29386208 21.03373604 88.09960938 23.69140625 C93.6995561 25.37416841 99.27578752 26.80136511 105 28 C105 28.66 105 29.32 105 30 C104.24082275 30.1858667 103.48164551 30.3717334 102.69946289 30.56323242 C84.27398413 35.05876141 84.27398413 35.05876141 66.02929688 40.2253418 C59.90521533 42.07424996 53.714978 43.60421435 47.50317383 45.12768555 C42.03696017 46.47415996 36.60555837 47.90915781 31.1875 49.4375 C24.05951573 51.44438474 16.91258947 53.37022283 9.75 55.25 C8.28469849 55.6375647 8.28469849 55.6375647 6.78979492 56.03295898 C4.19794613 56.70984857 1.60149216 57.36134294 -1 58 C-2.5778125 58.39445312 -2.5778125 58.39445312 -4.1875 58.796875 C-7.97856612 59.07067422 -11.17341302 58.11056443 -14.75 57 C-16.35891734 56.52708601 -17.96832286 56.0558308 -19.578125 55.5859375 C-20.44759766 55.3290918 -21.31707031 55.07224609 -22.21289062 54.80761719 C-27.28776189 53.33707811 -32.39552118 51.98843115 -37.5 50.625 C-39.73964229 50.02365703 -41.97922492 49.42209185 -44.21875 48.8203125 C-45.34152344 48.51899414 -46.46429688 48.21767578 -47.62109375 47.90722656 C-53.08152752 46.44111588 -58.54071841 44.97039403 -64 43.5 C-70.67560469 41.70246835 -77.35132837 39.9053808 -84.02734375 38.109375 C-85.18427734 37.79806641 -86.34121094 37.48675781 -87.53320312 37.16601562 C-89.72587079 36.57602071 -91.91857618 35.98616598 -94.11132812 35.39648438 C-96.10074352 34.86111825 -98.08954121 34.32345008 -100.07763672 33.78320312 C-102.10134129 33.24084354 -104.12939547 32.71455415 -106.16064453 32.20117188 C-107.1607959 31.94400391 -108.16094727 31.68683594 -109.19140625 31.421875 C-110.09189697 31.1959668 -110.9923877 30.97005859 -111.92016602 30.73730469 C-114 30 -114 30 -115 28 C-114.17089111 27.78907715 -113.34178223 27.5781543 -112.48754883 27.36083984 C-93.05602761 22.44381437 -93.05602761 22.44381437 -73.75 17.0625 C-62.87718574 13.87485661 -51.89617532 11.11980556 -40.9140625 8.33862305 C-31.64014007 5.98238808 -22.41567164 3.51886726 -13.30273438 0.58789062 C-8.45237248 -0.89451435 -5.06083114 -1.12588012 0 0 Z " fill="#25A8F4" transform="translate(261,18)"/>
<path d="M0 0 C0 17.16 0 34.32 0 52 C-44.88 52 -89.76 52 -136 52 C-136 35.17 -136 18.34 -136 1 C-129.25688073 1 -129.25688073 1 -125.5234375 2.13671875 C-124.69811523 2.38172119 -123.87279297 2.62672363 -123.02246094 2.87915039 C-122.14879883 3.14590576 -121.27513672 3.41266113 -120.375 3.6875 C-112.38217193 6.05525283 -104.37108566 8.19998027 -96.27026367 10.16357422 C-89.98694927 11.70517737 -83.79548447 13.47863058 -77.64160156 15.47680664 C-68.62093682 18.28754418 -61.6157408 16.32073261 -52.8125 13.8125 C-50.47699325 13.16381173 -48.14105053 12.51669119 -45.8046875 11.87109375 C-44.07557129 11.3913208 -44.07557129 11.3913208 -42.31152344 10.90185547 C-37.70546508 9.64744824 -33.07580424 8.50309905 -28.4375 7.375 C-21.2931304 5.62816437 -14.23467338 3.67296108 -7.20092773 1.52294922 C-2.19142044 0 -2.19142044 0 0 0 Z " fill="#3D53B7" transform="translate(324,76)"/>
<path d="M0 0 C73.26 0 146.52 0 222 0 C222 8.58 222 17.16 222 26 C148.74 26 75.48 26 0 26 C0 17.42 0 8.84 0 0 Z " fill="#7F8C92" transform="translate(145,469)"/>
<path d="M0 0 C17.16 0 34.32 0 52 0 C52 31.02 52 62.04 52 94 C34.84 94 17.68 94 0 94 C0 62.98 0 31.96 0 0 Z " fill="#3C52B4" transform="translate(230,358)"/>
<path d="M0 0 C84.48 0 168.96 0 256 0 C256 5.61 256 11.22 256 17 C171.52 17 87.04 17 0 17 C0 11.39 0 5.78 0 0 Z " fill="#F75500" transform="translate(128,196)"/>
<path d="M0 0 C73.26 0 146.52 0 222 0 C222 5.94 222 11.88 222 18 C148.74 18 75.48 18 0 18 C0 12.06 0 6.12 0 0 Z " fill="#FCD800" transform="translate(145,230)"/>
<path d="M0 0 C5.61 0 11.22 0 17 0 C17 61.71 17 123.42 17 187 C11.39 187 5.78 187 0 187 C0 125.29 0 63.58 0 0 Z " fill="#FBBE00" transform="translate(469,265)"/>
<path d="M0 0 C7.7192095 -0.11607715 15.43832801 -0.20480771 23.15821266 -0.25906086 C26.74332224 -0.28510611 30.3278328 -0.3204083 33.91259766 -0.37719727 C37.3750633 -0.43170274 40.83695444 -0.46145867 44.29981613 -0.47438622 C46.25749428 -0.48806074 48.21494268 -0.52706523 50.17227173 -0.56648254 C60.11013731 -0.56960805 60.11013731 -0.56960805 63.62890625 2.12158203 C66.12976073 5.15752461 67.91924772 8.01005082 69.6484375 11.54296875 C69.95069244 12.15263992 70.25294739 12.7623111 70.56436157 13.39045715 C71.19420033 14.66714545 71.81738422 15.94713706 72.43408203 17.23022461 C73.3806213 19.1991933 74.34654629 21.15766276 75.31640625 23.11523438 C80 32.65521064 80 32.65521064 80 35 C47.99 35 15.98 35 -17 35 C-17 29.06 -17 23.12 -17 17 C-15.618125 16.608125 -14.23625 16.21625 -12.8125 15.8125 C-8.41509973 14.31448452 -5.82508781 12.82217762 -3 9 C-2.40777548 7.45767193 -1.86564727 5.89544538 -1.3671875 4.3203125 C-0.97829346 3.10625732 -0.97829346 3.10625732 -0.58154297 1.86767578 C-0.38963379 1.25134277 -0.19772461 0.63500977 0 0 Z " fill="#F99500" transform="translate(401,213)"/>
<path d="M0 0 C1.3366259 0.00933643 2.67326902 0.01644863 4.00991821 0.0214386 C7.51202415 0.04044404 11.01307771 0.08948554 14.51477051 0.1449585 C18.09433763 0.19629266 21.67407639 0.2189826 25.25390625 0.24414062 C32.26605474 0.29761327 39.27750797 0.38284542 46.2890625 0.48828125 C46.57040039 1.41169312 46.57040039 1.41169312 46.85742188 2.35375977 C47.11330078 3.16256592 47.36917969 3.97137207 47.6328125 4.8046875 C48.00696289 6.00653687 48.00696289 6.00653687 48.38867188 7.23266602 C50.1418329 11.6246006 53.46876198 13.94141424 57.2890625 16.48828125 C59.2690625 16.81828125 61.2490625 17.14828125 63.2890625 17.48828125 C63.2890625 23.09828125 63.2890625 28.70828125 63.2890625 34.48828125 C31.6090625 34.48828125 -0.0709375 34.48828125 -32.7109375 34.48828125 C-31.45653162 28.21625186 -28.85554833 23.18650185 -26.0234375 17.48828125 C-25.50587891 16.40804687 -24.98832031 15.3278125 -24.45507812 14.21484375 C-23.93751953 13.17070312 -23.41996094 12.1265625 -22.88671875 11.05078125 C-22.42177002 10.10332031 -21.95682129 9.15585938 -21.4777832 8.1796875 C-15.68056193 -0.65112185 -10.01958728 -0.20177761 0 0 Z " fill="#F79400" transform="translate(64.7109375,212.51171875)"/>
<path d="M0 0 C36.63 0 73.26 0 111 0 C111 5.94 111 11.88 111 18 C74.37 18 37.74 18 0 18 C0 12.06 0 6.12 0 0 Z " fill="#617C8A" transform="translate(384,469)"/>
<path d="M0 0 C36.63 0 73.26 0 111 0 C111 5.61 111 11.22 111 17 C74.37 17 37.74 17 0 17 C0 11.39 0 5.78 0 0 Z " fill="#5F7A88" transform="translate(17,469)"/>
<path d="M0 0 C0 17.16 0 34.32 0 52 C-5.61 52 -11.22 52 -17 52 C-17 36.16 -17 20.32 -17 4 C-2 0 -2 0 0 0 Z " fill="#263994" transform="translate(324,76)"/>
<path d="M0 0 C73.26 0 146.52 0 222 0 C222 5.94 222 11.88 222 18 C148.74 18 75.48 18 0 18 C0 17.67 0 17.34 0 17 C67.65 17 135.3 17 205 17 C205 11.72 205 6.44 205 1 C137.35 1 69.7 1 0 1 C0 0.67 0 0.34 0 0 Z " fill="#B28E00" transform="translate(145,230)"/>
<path d="M0 0 C7.7192095 -0.11607715 15.43832801 -0.20480771 23.15821266 -0.25906086 C26.74332224 -0.28510611 30.3278328 -0.3204083 33.91259766 -0.37719727 C37.3750633 -0.43170274 40.83695444 -0.46145867 44.29981613 -0.47438622 C46.25749428 -0.48806074 48.21494268 -0.52706523 50.17227173 -0.56648254 C60.11013731 -0.56960805 60.11013731 -0.56960805 63.62890625 2.12158203 C66.12976073 5.15752461 67.91924772 8.01005082 69.6484375 11.54296875 C69.95069244 12.15263992 70.25294739 12.7623111 70.56436157 13.39045715 C71.19420033 14.66714545 71.81738422 15.94713706 72.43408203 17.23022461 C73.3806213 19.1991933 74.34654629 21.15766276 75.31640625 23.11523438 C80 32.65521064 80 32.65521064 80 35 C47.99 35 15.98 35 -17 35 C-17 34.67 -17 34.34 -17 34 C9.4 33.67 35.8 33.34 63 33 C58.05 23.1 53.1 13.2 48 3 C48 2.34 48 1.68 48 1 C32.16 1 16.32 1 0 1 C0 0.67 0 0.34 0 0 Z " fill="#D46F00" transform="translate(401,213)"/>
<path d="M0 0 C73.26 0 146.52 0 222 0 C222 8.58 222 17.16 222 26 C216.39 26 210.78 26 205 26 C205 17.75 205 9.5 205 1 C137.35 1 69.7 1 0 1 C0 0.67 0 0.34 0 0 Z " fill="#535B5F" transform="translate(145,469)"/>
<path d="M0 0 C84.48 0 168.96 0 256 0 C256 5.61 256 11.22 256 17 C250.39 17 244.78 17 239 17 C239 11.72 239 6.44 239 1 C160.13 1 81.26 1 0 1 C0 0.67 0 0.34 0 0 Z " fill="#C34000" transform="translate(128,196)"/>
<path d="M0 0 C2.69990662 1.79993774 4.5418865 3.083773 6 6 C6.29382599 9.59764598 6.27796031 13.20425394 6.3125 16.8125 C6.34150391 17.81087891 6.37050781 18.80925781 6.40039062 19.83789062 C6.46442216 27.23107012 6.46442216 27.23107012 4.10546875 31.13671875 C1.33245543 33.59075836 0.38201277 33.96462845 -3.375 34.3125 C-7 34 -7 34 -9.19116211 32.33569336 C-12.53202304 28.02174863 -11.61315619 22.81584498 -11.5625 17.5625 C-11.58634766 16.43005859 -11.61019531 15.29761719 -11.63476562 14.13085938 C-11.61840643 4.8770075 -11.61840643 4.8770075 -8.65234375 1.75 C-5.3763389 -0.41148774 -3.8518452 -0.72222098 0 0 Z " fill="#070600" transform="translate(404,290)"/>
<path d="M0 0 C2.67991935 2.05103713 3.84708894 3.23840193 4.51757812 6.57788086 C4.52208984 7.53057861 4.52660156 8.48327637 4.53125 9.46484375 C4.53640625 10.51220703 4.5415625 11.55957031 4.546875 12.63867188 C4.53140625 13.72728516 4.5159375 14.81589844 4.5 15.9375 C4.51546875 17.02224609 4.5309375 18.10699219 4.546875 19.22460938 C4.50811046 27.1083481 4.50811046 27.1083481 2.18359375 31.1875 C-0.90199481 33.7487041 -3.01797334 34.06986012 -7 34 C-10.42741629 31.91374661 -11.72481037 30.8255689 -13 27 C-13.30610389 23.3802246 -13.32359317 19.75619167 -13.375 16.125 C-13.41238281 15.13113281 -13.44976562 14.13726562 -13.48828125 13.11328125 C-13.57636244 5.80254254 -13.57636244 5.80254254 -10.73046875 1.83984375 C-6.605465 -0.93966521 -4.89129577 -0.69875654 0 0 Z " fill="#060500" transform="translate(64,393)"/>
<path d="M0 0 C2.69990662 1.79993774 4.5418865 3.083773 6 6 C6.24085346 9.61968348 6.1851958 13.24819274 6.1875 16.875 C6.19974609 17.88175781 6.21199219 18.88851563 6.22460938 19.92578125 C6.22750977 21.38177734 6.22750977 21.38177734 6.23046875 22.8671875 C6.23457764 23.75519043 6.23868652 24.64319336 6.24291992 25.55810547 C5.97895538 28.21154599 5.44914764 29.77123808 4 32 C0.24952518 34.50031654 -1.55856266 34.53603554 -6 34 C-8.6875 32.22265625 -8.6875 32.22265625 -11 29 C-11.74473699 24.98821341 -11.69784299 21.06949528 -11.625 17 C-11.64433594 15.91976563 -11.66367187 14.83953125 -11.68359375 13.7265625 C-11.63508553 5.86823155 -11.63508553 5.86823155 -8.6484375 1.78515625 C-5.3768591 -0.4200227 -3.87018831 -0.72566031 0 0 Z " fill="#050400" transform="translate(455,290)"/>
<path d="M0 0 C4.47913983 4.72885754 3.51389462 10.35163179 3.5 16.5 C3.52835938 17.64082031 3.55671875 18.78164063 3.5859375 19.95703125 C3.60550262 28.28198845 3.60550262 28.28198845 0.6875 31.7421875 C-2.92297275 33.43197271 -5.06142806 33.70331642 -9 33 C-12.08216408 30.30366724 -13.70409272 28.58025091 -14.46337891 24.52539062 C-14.63678044 21.64661819 -14.63290715 18.82038716 -14.5625 15.9375 C-14.57345703 14.95716797 -14.58441406 13.97683594 -14.59570312 12.96679688 C-14.55009282 8.48786447 -14.46341639 5.75719774 -12.08984375 1.87890625 C-8.34635688 -1.48673335 -4.72117269 -1.54256138 0 0 Z " fill="#070600" transform="translate(116,291)"/>
<path d="M0 0 C3.58072396 1.07355039 4.91018164 2.60096112 7.09765625 5.62890625 C7.78294883 9.31249484 7.70520991 12.89386084 7.59765625 16.62890625 C7.60152344 18.10617187 7.60152344 18.10617187 7.60546875 19.61328125 C7.4830999 28.66857594 7.4830999 28.66857594 4.09765625 32.62890625 C1.09765625 34.62890625 1.09765625 34.62890625 -2.33984375 34.50390625 C-6.30267234 33.53057993 -7.42332909 32.78182781 -9.90234375 29.62890625 C-10.41992188 26.94335938 -10.41992188 26.94335938 -10.43359375 23.91015625 C-10.43875 22.81316406 -10.44390625 21.71617187 -10.44921875 20.5859375 C-10.43375 19.44511719 -10.41828125 18.30429687 -10.40234375 17.12890625 C-10.4178125 15.98808594 -10.43328125 14.84726562 -10.44921875 13.671875 C-10.4440625 12.57488281 -10.43890625 11.47789062 -10.43359375 10.34765625 C-10.42908203 9.34669922 -10.42457031 8.34574219 -10.41992188 7.31445312 C-9.2812472 1.40623549 -5.62490652 0.19010618 0 0 Z " fill="#050400" transform="translate(453.90234375,392.37109375)"/>
<path d="M0 0 C2.65306288 2.06746362 3.84869537 3.24640305 4.51757812 6.57788086 C4.52208984 7.53057861 4.52660156 8.48327637 4.53125 9.46484375 C4.53640625 10.51220703 4.5415625 11.55957031 4.546875 12.63867188 C4.53140625 13.72728516 4.5159375 14.81589844 4.5 15.9375 C4.51546875 17.02224609 4.5309375 18.10699219 4.546875 19.22460938 C4.52394033 23.8889481 4.50351717 27.09013564 2.21875 31.21875 C-0.7918583 33.63571723 -2.37660905 33.66226145 -6.09765625 33.43359375 C-8.98024213 32.77657726 -10.28336232 31.33462725 -12 29 C-13.92807685 25.14384631 -13.27189373 20.42950167 -13.3125 16.1875 C-13.34150391 15.18912109 -13.37050781 14.19074219 -13.40039062 13.16210938 C-13.46442216 5.76892988 -13.46442216 5.76892988 -11.10546875 1.86328125 C-7.23600012 -1.56109081 -4.99406287 -1.11935892 0 0 Z " fill="#050400" transform="translate(64,342)"/>
<path d="M0 0 C2.64971542 1.80662415 4.55620529 3.11241058 6 6 C6.26752525 9.59821462 6.23158496 13.2054541 6.25 16.8125 C6.270625 17.81087891 6.29125 18.80925781 6.3125 19.83789062 C6.36190603 29.10769618 6.36190603 29.10769618 3 33 C-0.13400885 34.56700442 -3.63155095 34.85164561 -7 34 C-9.77489933 31.78203469 -10.85180214 29.93130285 -11.41064453 26.41943359 C-11.6123213 23.26945905 -11.64383158 20.15617341 -11.625 17 C-11.65722656 15.91976563 -11.68945312 14.83953125 -11.72265625 13.7265625 C-11.73213788 6.04644579 -11.73213788 6.04644579 -9.71020508 3.15649414 C-6.59741636 0.47028516 -4.06029209 -0.93699048 0 0 Z " fill="#050400" transform="translate(455,341)"/>
<path d="M0 0 C3.7049907 0.20971645 6.21604827 0.39583453 9.19726562 2.69335938 C11.4435704 5.56755866 11.51494597 7.1015847 11.53125 10.71875 C11.53640625 11.81574219 11.5415625 12.91273438 11.546875 14.04296875 C11.53140625 15.18378906 11.5159375 16.32460938 11.5 17.5 C11.51546875 18.64082031 11.5309375 19.78164063 11.546875 20.95703125 C11.54171875 22.05402344 11.5365625 23.15101563 11.53125 24.28125 C11.52673828 25.28220703 11.52222656 26.28316406 11.51757812 27.31445312 C10.85880452 30.73261807 9.74666298 31.91273007 7 34 C1.51404494 34.87078652 1.51404494 34.87078652 -1 34 C-4.11531789 31.30603446 -5.69292542 29.59207566 -6.47729492 25.52539062 C-6.67297486 22.64620967 -6.6821281 19.82246914 -6.625 16.9375 C-6.64433594 15.95716797 -6.66367188 14.97683594 -6.68359375 13.96679688 C-6.65063063 9.11132859 -6.61632373 6.77672344 -3.5234375 2.87890625 C-2.69070312 2.25886719 -1.85796875 1.63882812 -1 1 C-0.67 0.67 -0.34 0.34 0 0 Z " fill="#070600" transform="translate(108,341)"/>
<path d="M0 0 C2.64904643 2.0664038 3.84587145 3.25517465 4.53344727 6.57788086 C4.56908255 9.69926776 4.5939189 12.81593984 4.5625 15.9375 C4.58634766 17.02224609 4.61019531 18.10699219 4.63476562 19.22460938 C4.62017649 27.13678137 4.62017649 27.13678137 1.6875 31.21875 C-1.84393903 33.55935494 -3.84298605 33.68023865 -8 33 C-10.36497439 31.13291495 -11.66030715 29.67938569 -13 27 C-13.29382599 23.40235402 -13.27796031 19.79574606 -13.3125 16.1875 C-13.34150391 15.18912109 -13.37050781 14.19074219 -13.40039062 13.16210938 C-13.46442216 5.76892988 -13.46442216 5.76892988 -11.10546875 1.86328125 C-7.23600012 -1.56109081 -4.99406287 -1.11935892 0 0 Z " fill="#050400" transform="translate(64,291)"/>
<path d="M0 0 C2.68359375 1.8203125 2.68359375 1.8203125 5 5 C5.71712331 8.84707564 5.65262202 12.59796004 5.5625 16.5 C5.57345703 17.53253906 5.58441406 18.56507813 5.59570312 19.62890625 C5.55171222 24.17463338 5.48150204 27.16615418 3.1796875 31.15234375 C0.10476261 33.7588661 -1.99918732 34.0701897 -6 34 C-9.42741629 31.91374661 -10.72481037 30.8255689 -12 27 C-12.30610389 23.3802246 -12.32359317 19.75619167 -12.375 16.125 C-12.41238281 15.13113281 -12.44976562 14.13726562 -12.48828125 13.11328125 C-12.57651912 5.78953805 -12.57651912 5.78953805 -9.6953125 1.84375 C-6.12732835 -0.596958 -4.23960606 -0.75707251 0 0 Z " fill="#040300" transform="translate(285,282)"/>
<path d="M0 0 C3.02632932 2.08500015 4.75655122 3.69797425 5.44726562 7.39208984 C5.6019088 10.27721608 5.58315918 13.11210841 5.5 16 C5.50386719 17.47726562 5.50386719 17.47726562 5.5078125 18.984375 C5.38544365 28.03966969 5.38544365 28.03966969 2 32 C-1 34 -1 34 -4.4375 33.9375 C-8 33 -8 33 -10.1875 31.16015625 C-12.92810843 26.38181095 -12.6199456 21.91340279 -12.5625 16.5 C-12.58634766 15.46746094 -12.61019531 14.43492187 -12.63476562 13.37109375 C-12.62531032 8.48585343 -12.61852161 5.84903303 -9.68359375 1.8203125 C-6.12092803 -0.59628462 -4.22245252 -0.75400938 0 0 Z " fill="#040300" transform="translate(234,282)"/>
<path d="M0 0 C4.37407822 0.69429813 5.30591124 1.21112474 7.9375 4.625 C8.45507812 7.31054688 8.45507812 7.31054688 8.46875 10.34375 C8.47390625 11.44074219 8.4790625 12.53773438 8.484375 13.66796875 C8.46890625 14.80878906 8.4534375 15.94960938 8.4375 17.125 C8.45296875 18.26582031 8.4684375 19.40664063 8.484375 20.58203125 C8.47921875 21.67902344 8.4740625 22.77601563 8.46875 23.90625 C8.46423828 24.90720703 8.45972656 25.90816406 8.45507812 26.93945312 C7.79841482 30.3466684 6.64009258 31.50792882 3.9375 33.625 C0.5 34.6875 0.5 34.6875 -3.0625 34.625 C-5.740848 32.47067661 -7.52504419 30.69991161 -9.0625 27.625 C-9.38177202 24.21565978 -9.38683113 20.79745187 -9.4375 17.375 C-9.47488281 16.43269531 -9.51226562 15.49039062 -9.55078125 14.51953125 C-9.60751112 10.02526476 -9.6166337 6.64188142 -6.79296875 2.9921875 C-3.15356108 -0.16300713 -3.15356108 -0.16300713 0 0 Z " fill="#070600" transform="translate(111.0625,392.375)"/>
<path d="M0 0 C3.51566153 1.21771517 5.45834559 3.50763931 7.09765625 6.7265625 C7.76025221 10.27106925 7.70742014 13.69429511 7.59765625 17.2890625 C7.60152344 18.68801758 7.60152344 18.68801758 7.60546875 20.11523438 C7.53455943 25.08952333 7.37364461 28.72257673 4.09765625 32.7265625 C1.55536019 34.65520089 0.31420607 34.73558541 -2.90234375 34.6015625 C-6.42079285 33.57534818 -7.62591163 32.56668257 -9.90234375 29.7265625 C-10.41992188 27.04101562 -10.41992188 27.04101562 -10.43359375 24.0078125 C-10.43875 22.91082031 -10.44390625 21.81382812 -10.44921875 20.68359375 C-10.43375 19.54277344 -10.41828125 18.40195312 -10.40234375 17.2265625 C-10.4178125 16.08574219 -10.43328125 14.94492187 -10.44921875 13.76953125 C-10.4440625 12.67253906 -10.43890625 11.57554687 -10.43359375 10.4453125 C-10.42908203 9.44435547 -10.42457031 8.44339844 -10.41992188 7.41210938 C-9.28435123 1.51999751 -5.60399807 0.28966988 0 0 Z " fill="#060500" transform="translate(402.90234375,392.2734375)"/>
<path d="M0 0 C2.83913793 2.37873719 4.83835955 4.27392557 5.19287109 8.05957031 C5.28020844 10.78978866 5.33456325 13.51868134 5.375 16.25 C5.41238281 17.19230469 5.44976562 18.13460938 5.48828125 19.10546875 C5.54501112 23.59973524 5.5541337 26.98311858 2.73046875 30.6328125 C-0.90893892 33.78800713 -0.90893892 33.78800713 -4.0625 33.625 C-8.43657822 32.93070187 -9.36841124 32.41387526 -12 29 C-12.51757812 26.31445312 -12.51757812 26.31445312 -12.53125 23.28125 C-12.53640625 22.18425781 -12.5415625 21.08726562 -12.546875 19.95703125 C-12.53140625 18.81621094 -12.5159375 17.67539062 -12.5 16.5 C-12.51546875 15.35917969 -12.5309375 14.21835937 -12.546875 13.04296875 C-12.54171875 11.94597656 -12.5365625 10.84898437 -12.53125 9.71875 C-12.52673828 8.71779297 -12.52222656 7.71683594 -12.51757812 6.68554688 C-11.8667096 3.30839888 -10.62977341 2.14359681 -8 0 C-5.02898609 -1.48550695 -3.16565278 -0.82306972 0 0 Z " fill="#060500" transform="translate(405,342)"/>
<path d="M0 0 C36.63 0 73.26 0 111 0 C111 5.94 111 11.88 111 18 C74.37 18 37.74 18 0 18 C0 17.67 0 17.34 0 17 C31.02 17 62.04 17 94 17 C94 11.72 94 6.44 94 1 C62.98 1 31.96 1 0 1 C0 0.67 0 0.34 0 0 Z " fill="#34424B" transform="translate(384,469)"/>
<path d="M0 0 C1.82906927 -0.19205227 3.66424814 -0.32617346 5.5 -0.4375 C6.5209375 -0.51871094 7.541875 -0.59992188 8.59375 -0.68359375 C13.7639059 0.35399488 16.32227462 3.35032888 20 7 C21.02375756 7.99944396 22.0478718 8.99852265 23.07226562 9.99731445 C25.97196064 12.83916896 28.84616423 15.70549608 31.71191406 18.58154297 C33.52033509 20.39539617 35.33413364 22.2037518 37.1484375 24.01171875 C38.2971964 25.16113721 39.44564573 26.31086517 40.59375 27.4609375 C41.13737183 28.0025351 41.68099365 28.54413269 42.24108887 29.10214233 C46 32.88500386 46 32.88500386 46 34 C41.55147907 35.15015282 37.37612832 35.52371862 33 34 C26.3479747 29.65674038 21.06977294 23.33203763 15.6875 17.5625 C14.15990719 15.9782157 12.62933189 14.39680144 11.09570312 12.81835938 C8.31984028 9.94338804 5.55489473 7.05965418 2.82299805 4.14282227 C2.27596725 3.55880142 1.72893646 2.97478058 1.16532898 2.37306213 C0 1 0 1 0 0 Z " fill="#D04100" transform="translate(325,145)"/>
<path d="M0 0 C8.415 1.98 8.415 1.98 17 4 C17 4.66 17 5.32 17 6 C11.39 7.32 5.78 8.64 0 10 C0 6.7 0 3.4 0 0 Z " fill="#1571B1" transform="translate(349,42)"/>
</svg>
